<svg width="24" height="24" viewBox="0 0 24 24" fill="none" xmlns="http://www.w3.org/2000/svg">
<path d="M20 11L12.29 3.29C12.1037 3.10526 11.8523 3.00111 11.59 3H5C4.73478 3 4.48043 3.10536 4.29289 3.29289C4.10536 3.48043 4 3.73478 4 4V20C4 20.2652 4.10536 20.5196 4.29289 20.7071C4.48043 20.8946 4.73478 21 5 21H12C12.2951 19.8188 12.9363 18.7527 13.8414 17.9385C14.7466 17.1242 15.8743 16.5989 17.08 16.43L19.14 16.13C19.3803 16.096 19.6 15.9759 19.7582 15.7919C19.9165 15.6079 20.0024 15.3727 20 15.13V11ZM20 11H4M8 15H10" stroke="#0E73F8" stroke-width="1.5" stroke-linecap="round" stroke-linejoin="round"/>
</svg>
