<svg width="24" height="24" viewBox="0 0 24 24" fill="none" xmlns="http://www.w3.org/2000/svg">
<path fill-rule="evenodd" clip-rule="evenodd" d="M6.95652 4C5.73189 4 4.73913 5.00736 4.73913 6.25V10.75V17.5C4.33092 17.5 4 17.8358 4 18.25C4 18.6642 4.33092 19 4.73913 19H5.47826H13.6087H14.3478C14.756 19 15.087 18.6642 15.087 18.25C15.087 17.8358 14.756 17.5 14.3478 17.5V11.5C14.756 11.5 15.087 11.8358 15.087 12.25V15.625C15.087 16.6605 15.9143 17.5 16.9348 17.5C17.9553 17.5 18.7826 16.6605 18.7826 15.625V13H19.1522C20.1727 13 21 12.1605 21 11.125C21 10.0895 20.1727 9.25 19.1522 9.25H18.7826V8.5C18.7826 8.3297 18.7255 8.16447 18.6207 8.03148L17.1424 6.15648C16.8874 5.83303 16.4223 5.78059 16.1035 6.03935C15.7847 6.29811 15.733 6.77007 15.988 7.09352L17.3043 8.76308V10V12.25V15.625C17.3043 15.8321 17.1389 16 16.9348 16C16.7307 16 16.5652 15.8321 16.5652 15.625V12.25C16.5652 11.0073 15.5725 10 14.3478 10V6.25C14.3478 5.00736 13.3551 4 12.1304 4H6.95652ZM12.8696 11.9898V17.5H6.21739V11.9898C7.2459 12.4193 8.40554 12.625 9.54348 12.625C10.6814 12.625 11.8411 12.4193 12.8696 11.9898ZM9.54348 11.125C8.32514 11.125 7.1403 10.8481 6.21739 10.329V6.25C6.21739 5.83579 6.54831 5.5 6.95652 5.5H12.1304C12.5387 5.5 12.8696 5.83579 12.8696 6.25V10.329C11.9467 10.8481 10.7618 11.125 9.54348 11.125ZM19.1522 11.5H18.7826V10.75H19.1522C19.3562 10.75 19.5217 10.9179 19.5217 11.125C19.5217 11.3321 19.3562 11.5 19.1522 11.5Z" fill="#0E73F8"/>
</svg>
