<svg width="24" height="24" viewBox="0 0 24 24" fill="none" xmlns="http://www.w3.org/2000/svg">
<path d="M11.625 2.15C5.97777 2.15 1.4 6.72777 1.4 12.375C1.4 18.0222 5.97777 22.6 11.625 22.6C17.2722 22.6 21.85 18.0222 21.85 12.375C21.85 6.72777 17.2722 2.15 11.625 2.15ZM11.625 21.65C6.51048 21.65 2.35 17.4895 2.35 12.375C2.35 7.26048 6.51048 3.1 11.625 3.1C16.7395 3.1 20.9 7.26048 20.9 12.375C20.9 17.4895 16.7395 21.65 11.625 21.65ZM16.125 5.9C15.034 5.9 14.15 6.78402 14.15 7.875C14.15 8.80176 14.7888 9.57952 15.65 9.79246V10.5C15.65 11.272 15.022 11.9 14.25 11.9H12.1V9.79246C12.9612 9.57957 13.6 8.80251 13.6 7.875C13.6 6.78402 12.716 5.9 11.625 5.9C10.534 5.9 9.65 6.78402 9.65 7.875C9.65 8.80176 10.2888 9.57952 11.15 9.79246V11.9H7.6V9.79246C8.46119 9.57957 9.1 8.80251 9.1 7.875C9.1 6.78402 8.21598 5.9 7.125 5.9C6.03402 5.9 5.15 6.78402 5.15 7.875C5.15 8.80176 5.78879 9.57952 6.65 9.79246V14.9583C5.78881 15.1712 5.15 15.9482 5.15 16.8757C5.15 17.966 6.03405 18.85 7.125 18.85C8.21598 18.85 9.1 17.966 9.1 16.875C9.1 15.9482 8.46121 15.1705 7.6 14.9575V12.85H11.15V14.9575C10.2888 15.1704 9.65 15.9475 9.65 16.875C9.65 17.966 10.534 18.85 11.625 18.85C12.716 18.85 13.6 17.966 13.6 16.875C13.6 15.9482 12.9612 15.1705 12.1 14.9575V12.85H14.25C15.5457 12.85 16.6 11.7957 16.6 10.5V9.79246C17.4612 9.57957 18.1 8.80251 18.1 7.875C18.1 6.78402 17.216 5.9 16.125 5.9ZM10.6 7.875C10.6 7.30998 11.06 6.85 11.625 6.85C12.19 6.85 12.65 7.30998 12.65 7.875C12.65 8.44002 12.19 8.9 11.625 8.9C11.06 8.9 10.6 8.44002 10.6 7.875ZM6.1 7.875C6.1 7.30998 6.55998 6.85 7.125 6.85C7.69002 6.85 8.15 7.30998 8.15 7.875C8.15 8.44002 7.69002 8.9 7.125 8.9C6.55998 8.9 6.1 8.44002 6.1 7.875ZM8.15 16.875C8.15 17.44 7.69002 17.9 7.125 17.9C6.55998 17.9 6.1 17.44 6.1 16.875C6.1 16.31 6.55998 15.85 7.125 15.85C7.69002 15.85 8.15 16.31 8.15 16.875ZM12.65 16.875C12.65 17.44 12.19 17.9 11.625 17.9C11.06 17.9 10.6 17.44 10.6 16.875C10.6 16.31 11.06 15.85 11.625 15.85C12.19 15.85 12.65 16.31 12.65 16.875ZM16.125 8.9C15.56 8.9 15.1 8.44002 15.1 7.875C15.1 7.30998 15.56 6.85 16.125 6.85C16.69 6.85 17.15 7.30998 17.15 7.875C17.15 8.44002 16.69 8.9 16.125 8.9Z" fill="#0E73F8" stroke="#0E73F8" stroke-width="0.2"/>
</svg>
